<?xml version="1.0" encoding="UTF-8" ?>
<!DOCTYPE svg PUBLIC "-//W3C//DTD SVG 1.1//EN" "http://www.w3.org/Graphics/SVG/1.1/DTD/svg11.dtd">
<svg width="1163pt" height="1147pt" viewBox="0 0 1163 1147" version="1.1" xmlns="http://www.w3.org/2000/svg">
<g id="#000000ff">
<path fill="#000000" opacity="1.00" d=" M 110.35 26.53 C 111.54 26.28 112.75 26.11 113.97 26.02 C 424.99 26.01 736.02 26.02 1047.04 26.02 C 1051.04 26.41 1054.95 27.69 1059.03 27.39 C 1072.93 28.03 1086.27 33.54 1097.53 41.54 C 1110.34 50.97 1119.93 64.86 1123.64 80.38 C 1126.91 95.03 1125.83 110.11 1126.00 125.00 C 1125.96 191.01 1126.07 257.03 1125.95 323.04 C 1124.90 329.21 1126.76 335.42 1125.53 341.56 C 1124.85 344.95 1124.99 348.41 1125.28 351.83 C 1125.62 355.74 1124.49 359.69 1125.43 363.57 C 1126.43 368.31 1125.88 373.19 1126.04 378.00 C 1126.24 382.66 1124.75 387.22 1125.24 391.88 C 1125.68 396.19 1124.58 400.52 1125.28 404.83 C 1126.63 412.48 1125.72 420.27 1126.04 428.00 C 1126.28 432.68 1125.35 437.29 1125.05 441.95 C 1125.01 632.30 1125.04 822.65 1125.04 1013.00 C 1125.19 1022.66 1124.80 1032.34 1125.20 1042.00 C 1126.03 1046.33 1126.12 1050.73 1125.29 1055.07 C 1124.57 1080.08 1107.55 1102.94 1085.09 1113.15 C 1074.34 1118.75 1062.04 1120.90 1050.00 1120.36 C 735.32 1120.35 420.65 1120.35 105.97 1120.35 C 78.89 1118.94 53.16 1101.12 43.25 1075.73 C 41.21 1070.02 39.33 1064.12 39.00 1058.04 C 38.98 737.36 39.01 416.68 38.98 96.00 C 37.92 76.12 47.91 56.59 63.17 44.15 C 73.63 35.18 86.88 29.73 100.45 27.71 C 103.75 27.37 107.11 27.34 110.35 26.53 M 192.25 129.25 C 189.96 131.41 188.64 134.35 186.93 136.95 C 168.33 166.69 149.88 196.51 131.09 226.13 C 129.75 228.17 128.57 230.43 128.76 232.95 C 128.75 416.28 128.68 599.61 128.45 782.94 C 129.81 782.02 130.34 780.41 131.08 779.04 C 132.98 775.04 135.28 771.25 137.39 767.36 C 157.16 731.87 177.27 696.59 197.22 661.20 C 198.57 658.57 200.77 656.14 200.87 653.06 C 200.85 505.37 200.84 357.67 200.81 209.98 C 200.92 205.35 202.09 199.84 206.41 197.34 C 210.64 195.45 215.42 195.54 219.96 195.34 C 268.97 195.31 317.98 195.33 367.00 195.34 C 418.19 195.42 469.39 195.12 520.57 195.47 C 523.27 198.59 524.80 202.52 527.07 205.94 C 567.90 273.76 608.88 341.48 649.67 409.33 C 670.09 443.49 691.03 477.34 711.61 511.41 C 714.74 516.35 717.45 521.59 721.00 526.25 C 723.66 523.02 725.52 519.24 727.70 515.69 C 738.66 497.08 750.26 478.80 760.86 460.02 C 759.94 457.76 758.54 455.75 757.31 453.68 C 697.75 353.76 637.18 254.45 577.14 154.82 C 571.90 146.38 567.17 137.59 561.63 129.35 C 547.11 128.81 532.54 129.30 518.00 129.15 C 409.42 129.20 300.82 129.00 192.25 129.25 M 1031.82 203.85 C 974.35 233.64 916.82 263.33 859.46 293.35 C 830.83 308.01 802.32 322.94 773.78 337.79 C 772.85 338.52 770.70 338.84 771.54 340.42 C 794.97 353.29 818.16 366.60 841.64 379.40 C 842.93 380.10 844.22 380.89 845.27 381.98 C 837.09 395.82 828.48 409.42 820.16 423.18 C 763.06 516.81 706.69 610.91 649.47 704.43 C 622.01 704.98 594.49 704.16 567.03 704.83 C 572.86 715.19 579.63 725.02 585.78 735.20 C 593.60 747.49 600.91 760.16 609.13 772.17 C 632.06 772.66 655.04 772.17 678.00 772.40 C 680.24 772.36 682.53 772.54 684.74 772.00 C 686.87 769.29 688.42 766.20 690.26 763.30 C 722.99 709.37 755.93 655.57 788.59 601.59 C 824.58 542.87 860.13 483.87 896.21 425.19 C 897.75 422.77 899.04 420.15 901.01 418.03 C 908.53 421.50 915.58 425.95 922.70 430.15 C 864.16 527.55 804.59 624.37 745.49 721.45 C 719.78 764.04 693.59 806.35 668.03 849.04 C 663.85 855.52 660.53 862.62 655.71 868.65 C 649.30 868.95 642.81 869.10 636.42 868.56 C 635.58 867.71 634.90 866.75 634.26 865.79 C 581.79 782.22 529.33 698.63 476.99 614.98 C 476.40 613.78 474.90 614.55 474.73 615.64 C 462.99 636.07 450.95 656.37 439.61 677.02 C 440.66 679.86 442.55 682.28 444.13 684.84 C 460.28 710.69 476.40 736.56 492.70 762.32 C 526.45 816.22 560.03 870.23 593.89 924.07 C 595.75 926.82 597.06 930.04 599.50 932.37 C 714.28 932.55 829.07 932.26 943.85 932.53 C 943.50 931.46 943.08 930.43 942.58 929.46 C 916.75 885.26 891.11 840.94 865.20 796.79 C 855.97 781.49 847.62 765.65 838.05 750.57 C 836.47 752.53 835.15 754.67 833.86 756.82 C 826.34 769.58 818.50 782.15 810.85 794.83 C 807.37 800.92 803.28 806.71 800.28 813.06 C 803.48 821.78 808.98 829.49 813.37 837.65 C 819.10 848.10 825.70 858.09 830.99 868.76 C 798.39 868.82 765.78 868.86 733.18 868.80 C 740.57 855.49 748.31 842.37 756.59 829.58 C 776.31 797.88 795.49 765.84 815.08 734.06 C 839.85 693.79 864.33 653.34 889.07 613.06 C 914.80 571.08 940.44 529.05 965.98 486.96 C 970.78 479.38 975.05 471.44 980.26 464.14 C 985.86 466.38 990.73 470.11 996.06 472.92 C 1015.78 484.22 1035.24 495.97 1054.93 507.31 L 1055.72 506.99 C 1055.72 497.32 1055.21 487.66 1054.90 477.99 C 1052.14 384.02 1050.22 290.02 1047.83 196.04 C 1042.21 198.02 1037.11 201.17 1031.82 203.85 M 225.38 220.15 C 225.33 241.36 225.30 262.59 225.40 283.80 C 228.74 285.03 232.49 284.16 236.00 284.38 C 311.53 284.42 387.08 284.27 462.61 284.47 C 464.45 286.36 465.65 288.75 467.05 290.97 C 494.89 336.75 523.00 382.36 550.71 428.22 C 551.59 429.83 552.85 431.56 554.97 431.19 C 580.36 431.13 605.78 431.52 631.17 431.07 C 629.90 427.25 627.27 424.14 625.29 420.70 C 585.21 354.46 545.04 288.28 504.92 222.07 C 504.12 220.63 502.85 219.35 501.06 219.68 C 410.36 219.63 319.65 219.72 228.96 219.63 C 227.73 219.61 226.54 219.78 225.38 220.15 M 282.38 375.39 C 282.14 436.60 282.34 497.82 282.29 559.04 C 282.08 562.73 279.47 565.65 277.87 568.83 C 228.99 656.63 179.25 743.94 131.15 832.17 C 130.00 834.34 128.52 836.51 128.49 839.07 C 128.37 883.70 128.65 928.33 128.39 972.97 C 132.24 967.46 135.16 961.39 138.65 955.66 C 204.07 840.11 269.00 724.27 334.89 608.97 C 335.55 607.75 336.09 606.44 336.11 605.04 C 336.39 547.12 335.96 489.18 336.33 431.26 C 397.51 430.97 458.72 431.52 519.89 431.06 C 511.20 416.19 501.91 401.65 493.12 386.83 C 490.53 383.10 488.78 378.73 485.64 375.43 C 417.90 375.26 350.13 375.36 282.38 375.39 M 571.20 462.43 C 570.23 465.17 570.73 468.15 570.61 471.00 C 570.73 474.23 570.25 477.54 571.10 480.71 C 584.09 481.07 597.11 480.36 610.09 480.99 C 610.88 493.15 610.10 505.38 610.43 517.57 C 617.14 517.66 623.87 517.64 630.58 517.57 C 630.60 499.20 630.64 480.82 630.57 462.45 C 610.78 462.42 590.98 462.42 571.20 462.43 M 369.76 462.77 C 369.19 469.16 369.67 475.59 369.53 482.00 C 369.75 493.66 369.08 505.36 369.86 516.98 C 376.26 517.37 382.70 517.36 389.10 517.01 C 389.85 505.10 389.11 493.13 389.40 481.21 C 390.90 480.87 392.43 480.76 393.96 480.74 C 405.60 480.69 417.24 480.90 428.87 480.70 C 429.60 474.77 429.29 468.75 429.05 462.81 C 424.72 462.29 420.35 462.61 416.00 462.56 C 400.59 462.71 385.15 462.22 369.76 462.77 M 664.33 484.95 C 664.33 530.66 664.34 576.38 664.35 622.09 C 666.72 619.42 668.34 616.22 670.16 613.18 C 681.91 593.37 694.18 573.83 705.86 554.01 C 704.95 551.48 703.41 549.24 702.04 546.96 C 689.31 526.39 677.02 505.53 664.33 484.95 M 386.29 584.08 C 380.91 592.54 376.15 601.39 370.99 610.00 C 331.93 677.23 292.73 744.39 253.61 811.59 C 217.28 873.71 180.91 935.81 145.06 998.20 C 159.36 998.68 173.69 998.24 188.00 998.39 C 197.25 998.14 206.57 998.86 215.78 998.04 C 217.76 995.49 219.16 992.56 220.83 989.81 C 255.43 930.84 290.35 872.04 325.14 813.17 C 364.45 746.47 403.53 679.63 443.06 613.05 C 448.65 603.33 454.70 593.84 459.92 583.93 C 437.63 583.44 415.30 583.92 393.00 583.67 C 390.76 583.70 388.47 583.51 386.29 584.08 M 610.84 617.86 C 610.25 630.05 610.75 642.28 610.67 654.48 C 597.56 654.75 584.43 654.52 571.32 654.53 C 570.11 660.43 570.43 666.72 571.07 672.70 C 590.67 672.81 610.30 672.84 629.90 672.68 C 630.70 670.55 630.36 668.21 630.44 666.00 C 630.17 649.96 630.85 633.89 630.21 617.86 C 623.77 617.48 617.28 617.46 610.84 617.86 M 893.22 659.07 C 879.82 680.87 866.59 702.84 853.96 725.08 C 854.52 726.98 855.61 728.65 856.60 730.36 C 895.46 797.76 934.93 864.81 973.83 932.18 C 974.97 934.40 976.89 936.86 975.46 939.43 C 972.83 945.59 969.46 951.77 964.55 956.40 C 951.05 956.82 937.51 956.41 924.00 956.56 C 811.68 956.56 699.36 956.56 587.05 956.56 C 584.34 956.90 582.96 954.24 581.63 952.40 C 529.09 869.66 477.09 786.57 424.87 703.63 C 421.98 707.02 420.22 711.17 417.88 714.93 C 407.97 731.73 398.18 748.60 388.48 765.52 C 387.64 766.74 387.38 768.27 388.41 769.49 C 395.31 781.19 402.60 792.68 409.80 804.20 C 428.42 833.62 446.54 863.35 465.29 892.69 C 479.64 915.05 493.22 937.91 508.02 959.99 C 519.81 979.19 531.56 998.42 543.45 1017.56 C 544.97 1020.88 549.04 1019.93 552.00 1020.20 C 670.33 1020.31 788.66 1020.23 907.00 1020.24 C 928.52 1019.98 950.09 1020.89 971.57 1019.49 C 974.95 1015.06 977.24 1009.91 980.18 1005.19 C 997.95 975.17 1015.56 945.06 1032.69 914.67 C 1034.09 911.56 1036.55 907.84 1034.55 904.48 C 1030.97 897.50 1027.02 890.73 1023.12 883.94 C 983.29 814.74 943.60 745.46 903.61 676.36 C 900.05 670.65 897.26 664.44 893.22 659.07 Z" />
</g>
<g id="#ffffffff">
<path fill="#ffffff" opacity="1.00" d=" M 192.25 129.25 C 300.82 129.00 409.42 129.20 518.00 129.15 C 532.54 129.30 547.11 128.81 561.63 129.35 C 567.17 137.59 571.90 146.38 577.14 154.82 C 637.18 254.45 697.75 353.76 757.31 453.68 C 758.54 455.75 759.94 457.76 760.86 460.02 C 750.26 478.80 738.66 497.08 727.70 515.69 C 725.52 519.24 723.66 523.02 721.00 526.25 C 717.45 521.59 714.74 516.35 711.61 511.41 C 691.03 477.34 670.09 443.49 649.67 409.33 C 608.88 341.48 567.90 273.76 527.07 205.94 C 524.80 202.52 523.27 198.59 520.57 195.47 C 469.39 195.12 418.19 195.42 367.00 195.34 C 317.98 195.33 268.97 195.31 219.96 195.34 C 215.42 195.54 210.64 195.45 206.41 197.34 C 202.09 199.84 200.92 205.35 200.81 209.98 C 200.84 357.67 200.85 505.37 200.87 653.06 C 200.77 656.14 198.57 658.57 197.22 661.20 C 177.27 696.59 157.16 731.87 137.39 767.36 C 135.28 771.25 132.98 775.04 131.08 779.04 C 130.34 780.41 129.81 782.02 128.45 782.94 C 128.68 599.61 128.75 416.28 128.76 232.95 C 128.57 230.43 129.75 228.17 131.09 226.13 C 149.88 196.51 168.33 166.69 186.93 136.95 C 188.64 134.35 189.96 131.41 192.25 129.25 Z" />
<path fill="#ffffff" opacity="1.00" d=" M 1031.82 203.85 C 1037.11 201.17 1042.21 198.02 1047.83 196.04 C 1050.22 290.02 1052.14 384.02 1054.90 477.99 C 1055.21 487.66 1055.72 497.32 1055.72 506.99 L 1054.93 507.31 C 1035.24 495.97 1015.78 484.22 996.06 472.92 C 990.73 470.11 985.86 466.38 980.26 464.14 C 975.05 471.44 970.78 479.38 965.98 486.96 C 940.44 529.05 914.80 571.08 889.07 613.06 C 864.33 653.34 839.85 693.79 815.08 734.06 C 795.49 765.84 776.31 797.88 756.59 829.58 C 748.31 842.37 740.57 855.49 733.18 868.80 C 765.78 868.86 798.39 868.82 830.99 868.76 C 825.70 858.09 819.10 848.10 813.37 837.65 C 808.98 829.49 803.48 821.78 800.28 813.06 C 803.28 806.71 807.37 800.92 810.85 794.83 C 818.50 782.15 826.34 769.58 833.86 756.82 C 835.15 754.67 836.47 752.53 838.05 750.57 C 847.62 765.65 855.97 781.49 865.20 796.79 C 891.11 840.94 916.75 885.26 942.58 929.46 C 943.08 930.43 943.50 931.46 943.85 932.53 C 829.07 932.26 714.28 932.55 599.50 932.37 C 597.06 930.04 595.75 926.82 593.89 924.07 C 560.03 870.23 526.45 816.22 492.70 762.32 C 476.40 736.56 460.28 710.69 444.13 684.84 C 442.55 682.28 440.66 679.86 439.61 677.02 C 450.95 656.37 462.99 636.07 474.73 615.64 C 474.90 614.55 476.40 613.78 476.99 614.98 C 529.33 698.63 581.79 782.22 634.26 865.79 C 634.90 866.75 635.58 867.71 636.42 868.56 C 642.81 869.10 649.30 868.95 655.71 868.65 C 660.53 862.62 663.85 855.52 668.03 849.04 C 693.59 806.35 719.78 764.04 745.49 721.45 C 804.59 624.37 864.16 527.55 922.70 430.15 C 915.58 425.95 908.53 421.50 901.01 418.03 C 899.04 420.15 897.75 422.77 896.21 425.19 C 860.13 483.87 824.58 542.87 788.59 601.59 C 755.93 655.57 722.99 709.37 690.26 763.30 C 688.42 766.20 686.87 769.29 684.74 772.00 C 682.53 772.54 680.24 772.36 678.00 772.40 C 655.04 772.17 632.06 772.66 609.13 772.17 C 600.91 760.16 593.60 747.49 585.78 735.20 C 579.63 725.02 572.86 715.19 567.03 704.83 C 594.49 704.16 622.01 704.98 649.47 704.43 C 706.69 610.91 763.06 516.81 820.16 423.18 C 828.48 409.42 837.09 395.82 845.27 381.98 C 844.22 380.89 842.93 380.10 841.64 379.40 C 818.16 366.60 794.97 353.29 771.54 340.42 C 770.70 338.84 772.85 338.52 773.78 337.79 C 802.32 322.94 830.83 308.01 859.46 293.35 C 916.82 263.33 974.35 233.64 1031.82 203.85 Z" />
<path fill="#ffffff" opacity="1.00" d=" M 225.38 220.15 C 226.54 219.78 227.73 219.61 228.96 219.63 C 319.65 219.72 410.36 219.63 501.06 219.68 C 502.85 219.35 504.12 220.63 504.92 222.07 C 545.04 288.28 585.21 354.46 625.29 420.70 C 627.27 424.14 629.90 427.25 631.17 431.07 C 605.78 431.52 580.36 431.13 554.97 431.19 C 552.85 431.56 551.59 429.83 550.71 428.22 C 523.00 382.36 494.89 336.75 467.05 290.97 C 465.65 288.75 464.45 286.36 462.61 284.47 C 387.08 284.27 311.53 284.42 236.00 284.38 C 232.49 284.16 228.74 285.03 225.40 283.80 C 225.30 262.59 225.33 241.36 225.38 220.15 Z" />
<path fill="#ffffff" opacity="1.00" d=" M 282.38 375.39 C 350.13 375.36 417.90 375.26 485.64 375.43 C 488.78 378.73 490.53 383.10 493.12 386.83 C 501.91 401.65 511.20 416.19 519.89 431.06 C 458.72 431.52 397.51 430.97 336.33 431.26 C 335.96 489.18 336.39 547.12 336.11 605.04 C 336.09 606.44 335.55 607.75 334.89 608.97 C 269.00 724.27 204.07 840.11 138.65 955.66 C 135.16 961.39 132.24 967.46 128.39 972.97 C 128.65 928.33 128.37 883.70 128.49 839.07 C 128.52 836.51 130.00 834.34 131.15 832.17 C 179.25 743.94 228.99 656.63 277.87 568.83 C 279.47 565.65 282.08 562.73 282.29 559.04 C 282.34 497.82 282.14 436.60 282.38 375.39 Z" />
<path fill="#ffffff" opacity="1.00" d=" M 571.20 462.43 C 590.98 462.42 610.78 462.42 630.57 462.45 C 630.64 480.82 630.60 499.20 630.58 517.57 C 623.87 517.64 617.14 517.66 610.43 517.57 C 610.10 505.38 610.88 493.15 610.09 480.99 C 597.11 480.36 584.09 481.07 571.10 480.71 C 570.25 477.54 570.73 474.23 570.61 471.00 C 570.73 468.15 570.23 465.17 571.20 462.43 Z" />
<path fill="#ffffff" opacity="1.00" d=" M 369.76 462.77 C 385.15 462.22 400.59 462.71 416.00 462.56 C 420.35 462.61 424.72 462.29 429.05 462.81 C 429.29 468.75 429.60 474.77 428.87 480.70 C 417.24 480.90 405.60 480.69 393.96 480.74 C 392.43 480.76 390.90 480.87 389.40 481.21 C 389.11 493.13 389.85 505.10 389.10 517.01 C 382.70 517.36 376.26 517.37 369.86 516.98 C 369.08 505.36 369.75 493.66 369.53 482.00 C 369.67 475.59 369.19 469.16 369.76 462.77 Z" />
<path fill="#ffffff" opacity="1.00" d=" M 664.33 484.95 C 677.02 505.53 689.31 526.39 702.04 546.96 C 703.41 549.24 704.95 551.48 705.86 554.01 C 694.18 573.83 681.91 593.37 670.16 613.18 C 668.34 616.22 666.72 619.42 664.35 622.09 C 664.34 576.38 664.33 530.66 664.33 484.95 Z" />
<path fill="#ffffff" opacity="1.00" d=" M 386.29 584.08 C 388.47 583.51 390.76 583.70 393.00 583.67 C 415.30 583.92 437.63 583.44 459.92 583.93 C 454.70 593.84 448.65 603.33 443.06 613.05 C 403.53 679.63 364.45 746.47 325.14 813.17 C 290.35 872.04 255.43 930.84 220.83 989.81 C 219.16 992.56 217.76 995.49 215.78 998.04 C 206.57 998.86 197.25 998.14 188.00 998.39 C 173.69 998.24 159.36 998.68 145.06 998.20 C 180.91 935.81 217.28 873.71 253.61 811.59 C 292.73 744.39 331.93 677.23 370.99 610.00 C 376.15 601.39 380.91 592.54 386.29 584.08 Z" />
<path fill="#ffffff" opacity="1.00" d=" M 610.84 617.86 C 617.28 617.46 623.77 617.48 630.21 617.86 C 630.85 633.89 630.17 649.96 630.44 666.00 C 630.36 668.21 630.70 670.55 629.90 672.68 C 610.30 672.84 590.67 672.81 571.07 672.70 C 570.43 666.72 570.11 660.43 571.32 654.53 C 584.43 654.52 597.56 654.75 610.67 654.48 C 610.75 642.28 610.25 630.05 610.84 617.86 Z" />
<path fill="#ffffff" opacity="1.00" d=" M 893.22 659.07 C 897.26 664.44 900.05 670.65 903.61 676.36 C 943.60 745.46 983.29 814.74 1023.12 883.94 C 1027.02 890.73 1030.97 897.50 1034.55 904.48 C 1036.55 907.84 1034.09 911.56 1032.69 914.67 C 1015.56 945.06 997.95 975.17 980.18 1005.19 C 977.24 1009.91 974.95 1015.06 971.57 1019.49 C 950.09 1020.89 928.52 1019.98 907.00 1020.24 C 788.66 1020.23 670.33 1020.31 552.00 1020.20 C 549.04 1019.93 544.97 1020.88 543.45 1017.56 C 531.56 998.42 519.81 979.19 508.02 959.99 C 493.22 937.91 479.64 915.05 465.29 892.69 C 446.54 863.35 428.42 833.62 409.80 804.20 C 402.60 792.68 395.31 781.19 388.41 769.49 C 387.38 768.27 387.64 766.74 388.48 765.52 C 398.18 748.60 407.97 731.73 417.88 714.93 C 420.22 711.17 421.98 707.02 424.87 703.63 C 477.09 786.57 529.09 869.66 581.63 952.40 C 582.96 954.24 584.34 956.90 587.05 956.56 C 699.36 956.56 811.68 956.56 924.00 956.56 C 937.51 956.41 951.05 956.82 964.55 956.40 C 969.46 951.77 972.83 945.59 975.46 939.43 C 976.89 936.86 974.97 934.40 973.83 932.18 C 934.93 864.81 895.46 797.76 856.60 730.36 C 855.61 728.65 854.52 726.98 853.96 725.08 C 866.59 702.84 879.82 680.87 893.22 659.07 Z" />
</g>
</svg>
