<?xml version="1.0" encoding="UTF-8" ?>
<!DOCTYPE svg PUBLIC "-//W3C//DTD SVG 1.1//EN" "http://www.w3.org/Graphics/SVG/1.1/DTD/svg11.dtd">
<svg width="727pt" height="676pt" viewBox="0 0 727 676" version="1.1" xmlns="http://www.w3.org/2000/svg">
<g id="#000000ff">
<path fill="#000000" opacity="1.00" d=" M 125.35 24.38 C 128.54 23.89 131.77 23.61 135.00 23.55 C 284.33 23.54 433.67 23.55 583.00 23.54 C 593.56 23.62 604.49 22.86 614.65 26.37 C 623.71 29.73 631.50 36.73 635.20 45.74 C 637.76 51.81 638.02 58.52 638.03 65.01 C 637.92 101.01 638.10 137.01 637.94 173.01 C 637.68 181.34 637.60 189.67 637.92 198.00 C 637.26 210.00 638.50 222.01 637.60 234.01 C 637.50 330.01 637.58 426.00 637.56 522.00 C 637.42 530.30 638.85 538.91 635.99 546.92 C 631.82 559.26 620.16 568.31 607.43 570.32 C 601.98 571.03 596.47 570.65 591.00 570.70 C 436.99 570.68 282.98 570.71 128.97 570.69 C 111.52 570.54 94.90 555.81 94.47 538.02 C 94.45 377.68 94.47 217.33 94.46 56.98 C 94.52 40.25 109.18 26.26 125.35 24.38 M 170.97 75.06 C 161.00 90.76 151.33 106.65 141.30 122.31 C 138.40 126.30 139.60 131.43 139.38 136.01 C 139.39 224.71 139.35 313.42 139.28 402.13 C 150.54 381.83 161.97 361.64 173.46 341.47 C 174.56 339.50 175.56 337.38 175.47 335.07 C 175.44 262.05 175.45 189.02 175.43 115.99 C 175.52 113.40 175.92 109.94 178.77 108.95 C 181.74 108.03 184.91 108.21 187.99 108.14 C 237.17 108.26 286.36 108.04 335.54 108.25 C 340.20 116.56 345.31 124.62 350.18 132.82 C 378.71 179.75 406.61 227.09 435.59 273.75 C 442.04 262.73 449.02 252.00 455.17 240.81 C 453.88 236.81 451.21 233.45 449.18 229.81 C 418.29 178.12 386.86 126.74 355.89 75.09 C 294.25 75.06 232.61 75.13 170.97 75.06 M 460.39 180.29 C 472.72 187.54 485.31 194.34 497.79 201.32 C 464.90 254.99 432.51 308.97 399.79 362.75 C 386.02 362.80 372.24 362.66 358.47 362.84 C 365.29 374.20 372.50 385.33 379.40 396.65 C 392.10 396.64 404.80 396.69 417.49 396.61 C 453.32 337.46 489.32 278.41 525.36 219.39 C 529.05 221.37 532.71 223.43 536.38 225.45 C 492.28 298.82 447.23 371.62 403.00 444.92 C 399.70 444.90 396.41 444.90 393.12 444.89 C 366.30 402.48 339.84 359.83 313.03 317.41 C 306.65 327.81 300.83 338.53 294.65 349.04 C 321.23 391.55 347.86 434.03 374.42 476.54 C 431.98 476.54 489.53 476.54 547.08 476.55 C 529.37 446.25 511.76 415.89 494.01 385.62 C 487.59 396.07 481.22 406.56 474.94 417.09 C 479.78 426.55 485.44 435.56 490.60 444.84 C 474.27 444.96 457.94 444.91 441.62 444.88 C 449.15 431.20 457.90 418.25 465.86 404.83 C 498.95 350.69 532.07 296.57 565.12 242.40 C 577.78 249.59 590.26 257.09 602.87 264.38 C 601.29 212.38 600.24 160.37 598.89 108.37 C 552.68 132.25 506.45 156.10 460.39 180.29 M 187.71 120.31 C 187.66 131.12 187.65 141.92 187.72 152.72 C 226.49 152.69 265.26 152.69 304.03 152.73 C 306.47 152.34 307.68 154.53 308.76 156.29 C 322.82 179.59 337.17 202.71 351.20 226.03 C 364.38 226.21 377.57 226.20 390.75 226.06 C 369.50 190.77 348.08 155.59 326.73 120.36 C 280.39 120.33 234.05 120.41 187.71 120.31 M 216.14 198.15 C 216.10 228.13 216.13 258.10 216.14 288.07 C 216.23 292.09 213.62 295.37 211.82 298.75 C 188.12 341.11 164.22 383.36 140.90 425.92 C 139.46 428.34 139.15 431.16 139.23 433.92 C 139.41 454.78 139.13 475.65 139.42 496.51 C 144.64 488.23 149.22 479.57 154.10 471.08 C 183.19 419.55 212.18 367.96 241.54 316.59 C 242.96 314.34 243.14 311.64 243.12 309.06 C 243.06 281.40 243.10 253.74 243.08 226.09 C 273.73 226.15 304.38 226.15 335.03 226.11 C 329.38 216.77 323.72 207.44 317.99 198.15 C 284.04 198.21 250.09 198.20 216.14 198.15 M 259.73 241.75 C 259.71 250.87 259.72 260.00 259.74 269.13 C 263.07 269.11 266.39 269.11 269.72 269.06 C 269.72 263.00 269.69 256.94 269.73 250.88 C 276.37 250.86 283.00 250.86 289.63 250.86 C 289.60 247.83 289.59 244.81 289.61 241.79 C 279.65 241.71 269.69 241.74 259.73 241.75 M 360.31 241.78 C 360.32 244.80 360.32 247.83 360.31 250.86 C 366.94 250.86 373.56 250.87 380.19 250.88 C 380.24 257.02 380.22 263.16 380.21 269.30 C 383.56 269.30 386.92 269.30 390.27 269.30 C 390.28 260.12 390.28 250.94 390.27 241.76 C 380.28 241.75 370.29 241.71 360.31 241.78 M 407.18 252.85 C 407.20 275.73 407.07 298.62 407.27 321.51 C 413.68 311.42 419.62 301.04 426.00 290.92 C 426.70 289.40 428.45 287.61 427.15 285.95 C 420.59 274.86 413.70 263.96 407.18 252.85 M 268.20 302.36 C 248.65 335.78 229.24 369.27 209.72 402.70 C 188.97 438.36 168.00 473.89 147.50 509.69 C 159.29 509.77 171.07 509.67 182.85 509.71 C 223.67 440.66 264.37 371.53 305.11 302.42 C 292.80 302.37 280.50 302.47 268.20 302.36 M 380.29 319.32 C 380.27 325.51 380.30 331.70 380.27 337.89 C 373.61 337.86 366.96 337.77 360.31 338.05 C 360.32 340.98 360.32 343.92 360.30 346.86 C 370.27 346.89 380.24 346.87 390.20 346.87 C 390.21 337.69 390.30 328.51 390.24 319.33 C 386.92 319.35 383.60 319.34 380.29 319.32 M 501.83 373.05 C 521.49 407.36 541.59 441.42 561.40 475.64 C 561.98 476.75 562.57 477.88 562.92 479.11 C 562.17 482.72 559.70 485.65 557.74 488.68 C 494.23 488.81 430.72 488.76 367.21 488.70 C 340.22 446.78 314.09 404.31 287.30 362.26 C 281.01 372.87 274.84 383.55 268.65 394.22 C 294.41 436.64 321.54 478.20 347.51 520.49 C 418.58 520.60 489.65 520.68 560.73 520.45 C 570.91 503.32 580.99 486.13 590.83 468.80 C 591.62 466.94 593.25 464.83 592.21 462.77 C 590.55 458.93 588.22 455.44 586.19 451.81 C 564.69 414.50 543.31 377.12 521.70 339.88 C 514.90 350.83 508.43 361.98 501.83 373.05 Z" />
<path fill="#000000" opacity="1.00" d=" M 48.14 591.19 C 56.94 589.61 66.10 591.50 73.87 595.82 C 72.51 599.03 71.18 602.26 69.90 605.51 C 63.21 602.51 55.63 600.16 48.32 602.19 C 45.34 602.87 42.68 605.61 43.10 608.83 C 43.29 611.25 45.62 612.57 47.64 613.37 C 55.45 616.40 64.66 616.13 71.44 621.58 C 76.92 625.80 77.92 634.03 74.87 639.98 C 72.28 645.01 67.22 648.42 61.82 649.79 C 50.65 652.64 38.40 650.40 28.82 644.04 C 30.32 640.78 31.79 637.51 33.18 634.21 C 41.14 638.73 50.85 642.05 59.90 638.93 C 63.35 637.94 63.79 633.50 62.31 630.76 C 60.43 628.95 57.85 628.19 55.42 627.45 C 48.07 625.40 39.69 624.64 34.01 618.97 C 28.73 614.09 28.92 605.46 32.75 599.78 C 36.21 594.70 42.26 592.15 48.14 591.19 Z" />
<path fill="#000000" opacity="1.00" d=" M 174.15 599.14 C 183.34 590.36 197.94 588.33 209.38 593.64 C 213.14 595.36 216.23 598.18 219.26 600.94 C 216.50 603.55 213.73 606.15 210.97 608.77 C 207.79 606.14 204.46 603.35 200.30 602.52 C 192.98 600.91 184.30 603.77 180.63 610.61 C 176.98 617.50 177.38 626.59 182.06 632.91 C 186.47 638.81 194.76 640.85 201.66 638.79 C 205.27 637.68 208.24 635.25 211.20 633.00 C 213.92 635.58 216.61 638.19 219.26 640.85 C 214.41 645.60 208.50 649.56 201.63 650.50 C 190.60 652.48 178.25 648.76 171.28 639.71 C 161.80 628.11 163.00 609.23 174.15 599.14 Z" />
<path fill="#000000" opacity="1.00" d=" M 247.41 591.61 C 257.89 589.32 269.49 592.19 277.15 599.85 C 288.28 610.64 288.55 630.56 277.48 641.49 C 266.58 653.35 246.41 654.04 234.22 643.77 C 223.79 635.34 220.64 619.58 226.68 607.65 C 230.64 599.51 238.61 593.54 247.41 591.61 M 253.40 602.30 C 249.50 602.56 245.64 604.06 242.77 606.75 C 235.33 613.65 235.01 626.68 241.97 634.02 C 248.03 640.73 259.54 641.30 266.27 635.29 C 274.54 628.17 274.30 613.90 266.45 606.56 C 262.97 603.33 258.08 601.91 253.40 602.30 Z" />
<path fill="#000000" opacity="1.00" d=" M 335.41 591.39 C 339.76 591.45 344.11 591.48 348.47 591.53 C 348.67 610.99 348.39 630.46 348.62 649.92 C 344.92 649.94 341.11 650.47 337.48 649.54 C 334.16 646.83 331.90 643.09 329.15 639.85 C 322.28 631.75 316.27 622.92 308.90 615.26 C 308.15 626.79 308.64 638.36 308.62 649.91 C 304.31 649.98 300.00 650.00 295.69 650.00 C 295.41 630.53 295.46 611.06 295.66 591.59 C 299.01 591.56 302.44 591.16 305.75 591.93 C 310.17 595.30 312.99 600.27 316.62 604.42 C 322.86 611.76 328.41 619.69 335.14 626.61 C 335.83 614.88 335.31 603.13 335.41 591.39 Z" />
<path fill="#000000" opacity="1.00" d=" M 422.41 591.41 C 436.70 591.49 450.99 591.51 465.29 591.40 C 465.39 595.13 465.39 598.86 465.28 602.60 C 455.39 602.52 445.49 602.44 435.60 602.64 C 435.55 606.75 435.55 610.86 435.60 614.98 C 444.40 615.04 453.19 614.92 461.99 615.08 C 461.96 618.59 461.94 622.10 461.93 625.62 C 453.16 625.49 444.38 625.46 435.61 625.65 C 435.53 630.09 435.53 634.53 435.61 638.98 C 445.88 639.04 456.15 638.96 466.42 639.02 C 466.42 642.67 466.42 646.32 466.42 649.98 C 451.74 649.97 437.06 650.12 422.38 649.89 C 422.53 630.40 422.46 610.91 422.41 591.41 Z" />
<path fill="#000000" opacity="1.00" d=" M 476.53 591.53 C 484.65 591.49 492.78 591.32 500.91 591.50 C 507.91 591.70 515.41 593.33 520.48 598.51 C 526.51 604.26 527.71 613.92 524.33 621.35 C 522.39 625.62 518.48 628.42 514.85 631.17 C 518.78 637.56 523.17 643.65 527.23 649.95 C 522.49 650.01 517.75 650.01 513.01 650.01 C 509.39 644.50 505.73 639.02 502.15 633.50 C 498.10 633.54 494.06 633.57 490.02 633.61 C 490.01 639.08 489.99 644.54 489.98 650.01 C 485.44 650.01 480.91 649.99 476.38 649.90 C 476.61 630.44 476.33 610.99 476.53 591.53 M 490.04 602.74 C 489.97 609.27 489.97 615.81 490.03 622.34 C 496.37 622.21 503.54 623.84 509.17 620.12 C 514.85 616.21 513.74 606.30 507.31 603.80 C 501.78 601.86 495.78 602.77 490.04 602.74 Z" />
<path fill="#000000" opacity="1.00" d=" M 85.41 591.80 C 93.26 591.41 101.12 591.44 108.98 591.55 C 115.38 591.71 122.19 592.60 127.46 596.56 C 135.56 602.48 137.28 614.83 132.19 623.23 C 129.17 628.37 123.68 631.72 117.88 632.76 C 111.68 633.89 105.34 633.45 99.08 633.38 C 98.99 638.90 98.99 644.43 98.93 649.95 C 94.41 650.00 89.90 649.99 85.38 649.91 C 85.54 630.54 85.48 611.16 85.41 591.80 M 98.81 602.69 C 98.65 609.23 98.65 615.77 98.81 622.31 C 104.63 622.31 110.70 623.21 116.32 621.28 C 123.63 618.58 123.61 606.40 116.32 603.69 C 110.71 601.75 104.63 602.71 98.81 602.69 Z" />
<path fill="#000000" opacity="1.00" d=" M 354.59 591.67 C 359.22 591.43 363.88 591.49 368.49 592.06 C 371.60 600.27 375.26 608.25 378.54 616.39 C 380.82 621.93 382.99 627.52 385.82 632.81 C 390.04 623.83 393.66 614.58 397.56 605.46 C 399.50 601.03 400.92 596.32 403.51 592.21 C 407.59 590.76 412.05 591.97 416.28 592.11 C 408.36 611.49 399.93 630.66 391.84 649.97 C 387.56 649.99 383.28 650.00 379.00 650.02 C 370.76 630.61 362.28 611.30 354.59 591.67 Z" />
<path fill="#000000" opacity="1.00" d=" M 530.61 591.66 C 547.07 591.46 563.53 591.40 579.99 591.70 C 579.98 595.23 579.98 598.77 580.00 602.31 C 573.92 602.51 567.84 602.52 561.77 602.40 C 561.28 618.23 561.58 634.08 561.62 649.92 C 557.20 649.99 552.79 649.99 548.38 649.92 C 548.41 634.08 548.72 618.24 548.23 602.41 C 542.35 602.51 536.46 602.49 530.57 602.36 C 530.57 598.79 530.58 595.22 530.61 591.66 Z" />
<path fill="#000000" opacity="1.00" d=" M 587.04 591.69 C 601.70 591.42 616.37 591.42 631.03 591.69 C 630.97 595.32 630.94 598.95 630.90 602.58 C 620.80 602.55 610.69 602.43 600.59 602.64 C 600.55 606.75 600.55 610.86 600.60 614.98 C 609.41 615.03 618.23 614.97 627.04 615.02 C 626.98 618.55 626.94 622.08 626.91 625.62 C 618.14 625.50 609.37 625.46 600.61 625.64 C 600.53 630.08 600.53 634.53 600.62 638.98 C 611.07 639.06 621.52 638.91 631.98 639.07 C 631.97 642.69 631.97 646.31 631.97 649.93 C 617.00 650.05 602.03 650.04 587.07 649.93 C 586.94 630.52 586.99 611.11 587.04 591.69 Z" />
<path fill="#000000" opacity="1.00" d=" M 642.04 591.69 C 651.36 591.55 660.72 591.16 670.03 591.90 C 676.65 592.40 683.53 594.97 687.52 600.52 C 692.10 606.87 692.74 615.94 688.72 622.73 C 686.65 626.33 683.16 628.72 679.90 631.16 C 683.76 637.55 688.11 643.62 692.10 649.93 C 687.43 650.01 682.75 650.01 678.08 649.98 C 674.32 644.91 671.60 639.06 667.44 634.32 C 663.62 632.67 659.11 633.75 655.02 633.63 C 655.02 639.08 654.99 644.54 654.98 649.99 C 650.66 650.00 646.34 650.00 642.02 650.00 C 641.99 630.56 641.96 611.13 642.04 591.69 M 655.07 602.73 C 655.01 609.26 655.06 615.79 655.13 622.32 C 661.29 622.26 668.00 623.65 673.71 620.66 C 680.01 617.09 679.15 606.23 672.31 603.75 C 666.77 601.85 660.80 602.72 655.07 602.73 Z" />
</g>
<g id="#ffffffff">
<path fill="#ffffff" opacity="1.00" d=" M 170.97 75.06 C 232.61 75.13 294.25 75.06 355.89 75.09 C 386.86 126.74 418.29 178.12 449.18 229.81 C 451.21 233.45 453.88 236.81 455.17 240.81 C 449.02 252.00 442.04 262.73 435.59 273.75 C 406.61 227.09 378.71 179.75 350.18 132.82 C 345.31 124.62 340.20 116.56 335.54 108.25 C 286.36 108.04 237.17 108.26 187.99 108.14 C 184.91 108.21 181.74 108.03 178.77 108.95 C 175.92 109.94 175.52 113.40 175.43 115.99 C 175.45 189.02 175.44 262.05 175.47 335.07 C 175.56 337.38 174.56 339.50 173.46 341.47 C 161.97 361.64 150.54 381.83 139.28 402.13 C 139.35 313.42 139.39 224.71 139.38 136.01 C 139.60 131.43 138.40 126.30 141.30 122.31 C 151.33 106.65 161.00 90.76 170.97 75.06 Z" />
<path fill="#ffffff" opacity="1.00" d=" M 460.39 180.29 C 506.45 156.10 552.68 132.25 598.89 108.37 C 600.24 160.37 601.29 212.38 602.87 264.38 C 590.26 257.09 577.78 249.59 565.12 242.40 C 532.07 296.57 498.95 350.69 465.86 404.83 C 457.90 418.25 449.15 431.20 441.62 444.88 C 457.94 444.91 474.27 444.96 490.60 444.84 C 485.44 435.56 479.78 426.55 474.94 417.09 C 481.22 406.56 487.59 396.07 494.01 385.62 C 511.76 415.89 529.37 446.25 547.08 476.55 C 489.53 476.54 431.98 476.54 374.42 476.54 C 347.86 434.03 321.23 391.55 294.65 349.04 C 300.83 338.53 306.65 327.81 313.03 317.41 C 339.84 359.83 366.30 402.48 393.12 444.89 C 396.41 444.90 399.70 444.90 403.00 444.92 C 447.23 371.62 492.28 298.82 536.38 225.45 C 532.71 223.43 529.05 221.37 525.36 219.39 C 489.32 278.41 453.32 337.46 417.49 396.61 C 404.80 396.69 392.10 396.64 379.40 396.65 C 372.50 385.33 365.29 374.20 358.47 362.84 C 372.24 362.66 386.02 362.80 399.79 362.75 C 432.51 308.97 464.90 254.99 497.79 201.32 C 485.31 194.34 472.72 187.54 460.39 180.29 Z" />
<path fill="#ffffff" opacity="1.00" d=" M 187.71 120.31 C 234.05 120.41 280.39 120.33 326.73 120.36 C 348.08 155.59 369.50 190.77 390.75 226.06 C 377.57 226.20 364.38 226.21 351.20 226.03 C 337.17 202.71 322.82 179.59 308.76 156.29 C 307.68 154.53 306.47 152.34 304.03 152.73 C 265.26 152.69 226.49 152.69 187.72 152.72 C 187.65 141.92 187.66 131.12 187.71 120.31 Z" />
<path fill="#ffffff" opacity="1.00" d=" M 216.14 198.15 C 250.09 198.20 284.04 198.21 317.99 198.15 C 323.72 207.44 329.38 216.77 335.03 226.11 C 304.38 226.15 273.73 226.15 243.08 226.09 C 243.10 253.74 243.06 281.40 243.12 309.06 C 243.14 311.64 242.96 314.34 241.54 316.59 C 212.18 367.96 183.19 419.55 154.10 471.08 C 149.22 479.57 144.64 488.23 139.42 496.51 C 139.13 475.65 139.41 454.78 139.23 433.92 C 139.15 431.16 139.46 428.34 140.90 425.92 C 164.22 383.36 188.12 341.11 211.82 298.75 C 213.62 295.37 216.23 292.09 216.14 288.07 C 216.13 258.10 216.10 228.13 216.14 198.15 Z" />
<path fill="#ffffff" opacity="1.00" d=" M 259.73 241.75 C 269.69 241.74 279.65 241.71 289.61 241.79 C 289.59 244.81 289.60 247.83 289.63 250.86 C 283.00 250.86 276.37 250.86 269.73 250.88 C 269.69 256.94 269.72 263.00 269.72 269.06 C 266.39 269.11 263.07 269.11 259.74 269.13 C 259.72 260.00 259.71 250.87 259.73 241.75 Z" />
<path fill="#ffffff" opacity="1.00" d=" M 360.31 241.78 C 370.29 241.71 380.28 241.75 390.27 241.76 C 390.28 250.94 390.28 260.12 390.27 269.30 C 386.92 269.30 383.56 269.30 380.21 269.30 C 380.22 263.16 380.24 257.02 380.19 250.88 C 373.56 250.87 366.94 250.86 360.31 250.86 C 360.32 247.83 360.32 244.80 360.31 241.78 Z" />
<path fill="#ffffff" opacity="1.00" d=" M 407.18 252.85 C 413.70 263.96 420.59 274.86 427.15 285.95 C 428.45 287.61 426.70 289.40 426.00 290.92 C 419.62 301.04 413.68 311.42 407.27 321.51 C 407.07 298.62 407.20 275.73 407.18 252.85 Z" />
<path fill="#ffffff" opacity="1.00" d=" M 268.20 302.36 C 280.50 302.47 292.80 302.37 305.11 302.42 C 264.37 371.53 223.67 440.66 182.85 509.71 C 171.07 509.67 159.29 509.77 147.50 509.69 C 168.00 473.89 188.97 438.36 209.72 402.70 C 229.24 369.27 248.65 335.78 268.20 302.36 Z" />
<path fill="#ffffff" opacity="1.00" d=" M 380.29 319.32 C 383.60 319.34 386.92 319.35 390.24 319.33 C 390.30 328.51 390.21 337.69 390.20 346.87 C 380.24 346.87 370.27 346.89 360.30 346.86 C 360.32 343.92 360.32 340.98 360.31 338.05 C 366.96 337.77 373.61 337.86 380.27 337.89 C 380.30 331.70 380.27 325.51 380.29 319.32 Z" />
<path fill="#ffffff" opacity="1.00" d=" M 501.83 373.05 C 508.43 361.98 514.90 350.83 521.70 339.88 C 543.31 377.12 564.69 414.50 586.19 451.81 C 588.22 455.44 590.55 458.93 592.21 462.77 C 593.25 464.83 591.62 466.94 590.83 468.80 C 580.99 486.13 570.91 503.32 560.73 520.45 C 489.65 520.68 418.58 520.60 347.51 520.49 C 321.54 478.20 294.41 436.64 268.65 394.22 C 274.84 383.55 281.01 372.87 287.30 362.26 C 314.09 404.31 340.22 446.78 367.21 488.70 C 430.72 488.76 494.23 488.81 557.74 488.68 C 559.70 485.65 562.17 482.72 562.92 479.11 C 562.57 477.88 561.98 476.75 561.40 475.64 C 541.59 441.42 521.49 407.36 501.83 373.05 Z" />
</g>
</svg>
